<svg xmlns="http://www.w3.org/2000/svg" viewBox="0 0 100 100">
  <defs>
    <linearGradient id="streamGradient" x1="0%" y1="0%" x2="100%" y2="100%">
      <stop offset="0%" style="stop-color:#6c8bef;stop-opacity:1" />
      <stop offset="100%" style="stop-color:#b06cef;stop-opacity:1" />
    </linearGradient>
    <linearGradient id="flowGradient" x1="0%" y1="0%" x2="100%" y2="0%">
      <stop offset="0%" style="stop-color:#6c8bef;stop-opacity:0.3" />
      <stop offset="50%" style="stop-color:#b06cef;stop-opacity:0.8" />
      <stop offset="100%" style="stop-color:#6c8bef;stop-opacity:0.3" />
    </linearGradient>
  </defs>
  
  <!-- Background circle -->
  <circle cx="50" cy="50" r="45" fill="#121212" stroke="url(#streamGradient)" stroke-width="3"/>
  
  <!-- Main stream pipe/channel -->
  <path d="M 15 35 Q 25 25, 40 30 Q 55 35, 70 25 Q 80 20, 90 30" 
        stroke="url(#streamGradient)" stroke-width="4" fill="none" stroke-linecap="round"/>
  <path d="M 15 50 Q 25 40, 40 45 Q 55 50, 70 40 Q 80 35, 90 45" 
        stroke="url(#streamGradient)" stroke-width="5" fill="none" stroke-linecap="round"/>
  <path d="M 15 65 Q 25 55, 40 60 Q 55 65, 70 55 Q 80 50, 90 60" 
        stroke="url(#streamGradient)" stroke-width="4" fill="none" stroke-linecap="round"/>
  
  <!-- Flowing particles/tokens -->
  <g fill="url(#streamGradient)">
    <!-- Top flow -->
    <circle cx="25" cy="28" r="2" opacity="0.8"/>
    <circle cx="45" cy="32" r="1.5" opacity="0.6"/>
    <circle cx="65" cy="27" r="1" opacity="0.4"/>
    
    <!-- Middle flow -->
    <circle cx="20" cy="47" r="2.5" opacity="1"/>
    <circle cx="35" cy="46" r="2" opacity="0.8"/>
    <circle cx="50" cy="48" r="2.5" opacity="1"/>
    <circle cx="65" cy="42" r="2" opacity="0.6"/>
    <circle cx="80" cy="40" r="1.5" opacity="0.4"/>
    
    <!-- Bottom flow -->
    <circle cx="30" cy="58" r="2" opacity="0.7"/>
    <circle cx="50" cy="62" r="1.5" opacity="0.5"/>
    <circle cx="70" cy="57" r="1" opacity="0.3"/>
  </g>
  
  <!-- Central hub/node -->
  <circle cx="50" cy="47" r="8" fill="none" stroke="url(#streamGradient)" stroke-width="2.5"/>
  <circle cx="50" cy="47" r="4" fill="url(#streamGradient)" opacity="0.8"/>
  
  <!-- Flow direction indicators -->
  <path d="M 75 47 L 82 47 M 79 44 L 82 47 L 79 50" 
        stroke="url(#streamGradient)" stroke-width="2" fill="none" stroke-linecap="round"/>
</svg> 