<svg xmlns="http://www.w3.org/2000/svg" viewBox="0 0 200 60">
  <defs>
    <linearGradient id="logoGradient" x1="0%" y1="0%" x2="100%" y2="100%">
      <stop offset="0%" style="stop-color:#6c8bef;stop-opacity:1" />
      <stop offset="100%" style="stop-color:#b06cef;stop-opacity:1" />
    </linearGradient>
    <linearGradient id="flowGradient" x1="0%" y1="0%" x2="100%" y2="0%">
      <stop offset="0%" style="stop-color:#6c8bef;stop-opacity:0.4" />
      <stop offset="30%" style="stop-color:#b06cef;stop-opacity:0.9" />
      <stop offset="70%" style="stop-color:#6c8bef;stop-opacity:0.9" />
      <stop offset="100%" style="stop-color:#b06cef;stop-opacity:0.4" />
    </linearGradient>
  </defs>
  
  <!-- Main streaming channels -->
  <path d="M 10 15 Q 30 8, 60 12 Q 90 16, 120 10 Q 150 5, 180 12" 
        stroke="url(#logoGradient)" stroke-width="3" fill="none" stroke-linecap="round"/>
  <path d="M 10 30 Q 30 23, 60 27 Q 90 31, 120 25 Q 150 20, 180 27" 
        stroke="url(#logoGradient)" stroke-width="4" fill="none" stroke-linecap="round"/>
  <path d="M 10 45 Q 30 38, 60 42 Q 90 46, 120 40 Q 150 35, 180 42" 
        stroke="url(#logoGradient)" stroke-width="3" fill="none" stroke-linecap="round"/>
  
  <!-- Flowing tokens/particles -->
  <g fill="url(#logoGradient)">
    <!-- Top flow -->
    <circle cx="25" cy="11" r="1.5" opacity="0.7"/>
    <circle cx="50" cy="14" r="1.2" opacity="0.5"/>
    <circle cx="75" cy="12" r="1" opacity="0.4"/>
    <circle cx="105" cy="9" r="1.3" opacity="0.6"/>
    <circle cx="135" cy="8" r="1" opacity="0.3"/>
    <circle cx="165" cy="10" r="1.2" opacity="0.5"/>
    
    <!-- Middle flow (main) -->
    <circle cx="20" cy="28" r="2" opacity="0.9"/>
    <circle cx="40" cy="25" r="1.8" opacity="0.8"/>
    <circle cx="65" cy="29" r="2.2" opacity="1"/>
    <circle cx="85" cy="32" r="1.5" opacity="0.7"/>
    <circle cx="110" cy="27" r="2" opacity="0.9"/>
    <circle cx="130" cy="23" r="1.8" opacity="0.6"/>
    <circle cx="155" cy="22" r="1.5" opacity="0.5"/>
    <circle cx="175" cy="25" r="1.3" opacity="0.4"/>
    
    <!-- Bottom flow -->
    <circle cx="30" cy="40" r="1.5" opacity="0.6"/>
    <circle cx="55" cy="44" r="1.2" opacity="0.5"/>
    <circle cx="80" cy="47" r="1.4" opacity="0.7"/>
    <circle cx="110" cy="42" r="1" opacity="0.4"/>
    <circle cx="140" cy="37" r="1.3" opacity="0.5"/>
    <circle cx="170" cy="40" r="1.1" opacity="0.3"/>
  </g>
  
  <!-- Central hub/node -->
  <circle cx="95" cy="27" r="6" fill="none" stroke="url(#logoGradient)" stroke-width="2"/>
  <circle cx="95" cy="27" r="3" fill="url(#logoGradient)" opacity="0.8"/>
  
  <!-- Flow direction arrow -->
  <path d="M 185 27 L 192 27 M 189 24 L 192 27 L 189 30" 
        stroke="url(#logoGradient)" stroke-width="2" fill="none" stroke-linecap="round"/>
  
  <!-- Small connecting nodes -->
  <circle cx="45" cy="25" r="2" fill="url(#logoGradient)" opacity="0.6"/>
  <circle cx="145" cy="25" r="2" fill="url(#logoGradient)" opacity="0.6"/>
</svg> 